<?xml version="1.0" standalone="no"?>
<!DOCTYPE svg PUBLIC "-//W3C//DTD SVG 20010904//EN"
 "http://www.w3.org/TR/2001/REC-SVG-20010904/DTD/svg10.dtd">
<svg version="1.0" xmlns="http://www.w3.org/2000/svg"
 width="200.000000pt" height="80.000000pt" viewBox="0 0 200.000000 80.000000"
 preserveAspectRatio="xMidYMid meet">

<g transform="translate(0.000000,80.000000) scale(0.100000,-0.100000)"
fill="#000000" stroke="none">
<path d="M0 400 l0 -400 1000 0 1000 0 0 400 0 400 -1000 0 -1000 0 0 -400z
m485 15 l0 -250 -28 -13 c-15 -7 -32 -10 -37 -7 -14 9 -13 480 1 506 7 14 19
19 37 17 l27 -3 0 -250z m-117 113 c17 -17 17 -269 0 -286 -17 -17 -55 -15
-62 4 -8 21 -8 279 1 287 11 11 48 8 61 -5z m232 -7 c5 -11 10 -73 10 -138 0
-131 -9 -157 -51 -151 -24 3 -24 3 -27 143 -1 76 0 145 2 152 8 20 54 16 66
-6z m-345 -136 l0 -90 -30 0 -30 0 -3 79 c-4 98 0 108 35 104 l28 -3 0 -90z
m460 0 c0 -86 -1 -90 -23 -93 -40 -6 -52 14 -52 88 0 90 5 102 44 98 l31 -3 0
-90z m263 69 c12 -8 22 -22 22 -31 0 -25 -30 -53 -57 -53 -14 0 -23 -6 -23
-15 0 -8 -9 -15 -20 -15 -18 0 -20 7 -20 58 0 32 3 62 7 65 12 13 68 7 91 -9z
m72 1 c0 -8 9 -15 19 -15 30 0 51 -28 51 -66 0 -27 -4 -34 -20 -34 -16 0 -20
7 -20 35 0 24 -5 35 -15 35 -10 0 -15 -11 -15 -35 0 -28 -4 -35 -20 -35 -18 0
-20 7 -20 65 0 58 2 65 20 65 11 0 20 -7 20 -15z m568 -1 c12 -8 22 -22 22
-31 0 -25 -30 -53 -57 -53 -14 0 -23 -6 -23 -15 0 -8 -9 -15 -20 -15 -18 0
-20 7 -20 58 0 32 3 62 7 65 12 13 68 7 91 -9z m72 -49 c0 -58 -2 -65 -20 -65
-18 0 -20 7 -20 65 0 58 2 65 20 65 18 0 20 -7 20 -65z m-490 21 c0 -8 -7 -16
-15 -20 -9 -3 -15 -18 -15 -36 0 -23 -4 -30 -20 -30 -17 0 -20 7 -20 43 0 24
3 47 7 50 12 13 63 7 63 -7z m88 2 c7 -7 12 -29 12 -50 l0 -38 -44 0 c-47 0
-67 20 -45 46 6 7 8 18 4 24 -17 27 48 43 73 18z m105 -3 c-1 -5 -12 -13 -25
-16 l-23 -5 25 -7 c20 -5 29 -1 43 18 21 29 58 33 81 9 28 -27 20 -44 -21 -44
-25 0 -33 -3 -24 -9 7 -5 22 -6 32 -4 13 4 19 0 19 -11 0 -15 -16 -21 -50 -17
-8 1 -23 11 -32 23 -15 17 -18 17 -18 4 0 -20 -34 -34 -67 -28 -33 6 -22 28
13 24 l29 -2 -32 15 c-35 15 -41 33 -21 53 15 15 74 12 71 -3z m391 -1 c9 -8
16 -31 16 -50 0 -34 0 -34 -45 -34 -32 0 -47 5 -51 15 -7 18 10 42 34 48 9 2
7 3 -5 2 -12 -1 -24 4 -27 11 -10 26 54 32 78 8z m60 -11 l14 -28 13 28 c12
27 39 38 38 15 0 -7 -12 -38 -27 -68 -22 -44 -32 -55 -51 -55 -13 0 -26 6 -28
13 -3 7 4 12 16 12 26 0 26 -2 1 55 -24 56 -24 55 -5 55 8 0 21 -12 29 -27z"/>
<path d="M920 421 c0 -15 6 -21 21 -21 14 0 19 5 17 17 -5 26 -38 29 -38 4z"/>
<path d="M1560 421 c0 -15 6 -21 21 -21 25 0 22 33 -4 38 -12 2 -17 -3 -17
-17z"/>
<path d="M1238 403 c7 -3 16 -2 19 1 4 3 -2 6 -13 5 -11 0 -14 -3 -6 -6z"/>
<path d="M1240 370 c0 -5 4 -10 9 -10 6 0 13 5 16 10 3 6 -1 10 -9 10 -9 0
-16 -4 -16 -10z"/>
<path d="M1448 403 c7 -3 16 -2 19 1 4 3 -2 6 -13 5 -11 0 -14 -3 -6 -6z"/>
<path d="M1735 370 c-3 -5 1 -10 9 -10 9 0 16 5 16 10 0 6 -4 10 -9 10 -6 0
-13 -4 -16 -10z"/>
</g>
</svg>
